<svg width="24" height="24" viewBox="0 0 24 24" fill="none" xmlns="http://www.w3.org/2000/svg">
<path d="M20.625 3.75H3.375C2.87784 3.7504 2.40116 3.94807 2.04961 4.29961C1.69807 4.65116 1.5004 5.12784 1.5 5.625V18.375C1.5 19.4093 2.34075 20.25 3.375 20.25H20.625C21.6593 20.25 22.5 19.4093 22.5 18.375V5.625C22.5 4.59075 21.6593 3.75 20.625 3.75ZM8.25 4.5H9.75V6.30675H8.25V4.5ZM2.25 7.5H3.75V9H2.25V7.5ZM7.5 19.5H3.375C2.75475 19.5 2.25 18.9952 2.25 18.375V9.75H3.81525C3.8505 9.849 3.89625 9.9435 3.95625 10.0297C3.82083 10.2909 3.75009 10.5808 3.75 10.875V12.375C3.75045 12.4427 3.76917 12.5091 3.80418 12.5671C3.8392 12.6251 3.88922 12.6726 3.94896 12.7045C4.00871 12.7365 4.07596 12.7517 4.14364 12.7486C4.21132 12.7455 4.27691 12.7242 4.3335 12.687L5.25 12.0758L6.16725 12.687C6.2237 12.7247 6.28934 12.7462 6.35713 12.7494C6.42491 12.7526 6.49228 12.7372 6.552 12.705C6.61185 12.6731 6.66189 12.6256 6.69677 12.5675C6.73165 12.5093 6.75005 12.4428 6.75 12.375V10.8045C6.75 10.3253 7.056 9.9225 7.4985 9.76275L7.5 9.7635V19.5ZM6 8.55675H7.125V9.036L4.9935 9.74625C4.93578 9.76541 4.87427 9.7703 4.81425 9.7605C4.809 9.75975 4.8045 9.75525 4.79925 9.7545C4.71493 9.73798 4.63897 9.69266 4.58438 9.6263C4.52979 9.55994 4.49996 9.47668 4.5 9.39075V6.972C4.5 6.8505 4.55625 6.73875 4.65525 6.66825C4.70332 6.63307 4.75916 6.61 4.81804 6.60099C4.87693 6.59198 4.93711 6.5973 4.9935 6.6165L7.125 7.3275V7.8075H6C5.90354 7.81182 5.81247 7.85317 5.74574 7.92296C5.67901 7.99274 5.64177 8.08557 5.64177 8.18213C5.64177 8.27868 5.67901 8.37151 5.74574 8.44129C5.81247 8.51108 5.90354 8.55243 6 8.55675ZM4.5765 10.4745C4.617 10.4857 4.659 10.4835 4.70025 10.4895C4.75725 10.4985 4.8135 10.5165 4.872 10.5165C4.87875 10.5165 4.8855 10.5135 4.89225 10.5135C5.00743 10.5126 5.12179 10.4939 5.23125 10.458L6.11175 10.1648C6.03757 10.3699 5.99975 10.5864 6 10.8045V11.6737L5.45775 11.313C5.39628 11.2719 5.32397 11.2499 5.25 11.2499C5.17603 11.2499 5.10372 11.2719 5.04225 11.313L4.5 11.6737V10.875C4.5 10.737 4.5255 10.6027 4.5765 10.4745ZM7.5 6.6015C7.4835 6.6165 7.464 6.6285 7.449 6.64425L5.23125 5.90475C5.06223 5.8473 4.88187 5.83134 4.70539 5.85823C4.52891 5.88512 4.36149 5.95407 4.21725 6.05925C3.98707 6.22439 3.82918 6.4717 3.77625 6.75H2.25V5.625C2.25 5.00475 2.75475 4.5 3.375 4.5H7.5V6.6015ZM9.75 19.5H8.25V10.0568H9.75V19.5ZM10.125 8.93175C10.1233 9.0121 10.0951 9.08963 10.0448 9.15225C10.0417 9.15825 10.0343 9.15975 10.0312 9.16575C10.0297 9.16875 10.0305 9.1725 10.029 9.1755C9.99468 9.21617 9.95198 9.24894 9.90383 9.27159C9.85568 9.29425 9.80321 9.30624 9.75 9.30675H8.25C8.1944 9.30616 8.13967 9.29296 8.08991 9.26814C8.04015 9.24333 7.99667 9.20755 7.96275 9.1635L7.96575 9.162C7.95628 9.14271 7.94498 9.12437 7.932 9.10725C7.9275 9.102 7.92 9.09975 7.9155 9.0945C7.88914 9.04425 7.87501 8.98849 7.87425 8.93175V7.43175C7.87425 7.2255 8.043 7.05675 8.24925 7.05675H9.74925C9.9555 7.05675 10.1242 7.2255 10.1242 7.43175V8.93175H10.125ZM21.75 18.375C21.75 18.9952 21.2453 19.5 20.625 19.5H10.5V9.76425L10.5015 9.7635C10.944 9.9225 11.25 10.326 11.25 10.8045V12.375C11.2504 12.4427 11.2692 12.5091 11.3042 12.5671C11.3392 12.6251 11.3892 12.6726 11.449 12.7045C11.5087 12.7365 11.576 12.7517 11.6436 12.7486C11.7113 12.7455 11.7769 12.7242 11.8335 12.687L12.75 12.0758L13.6672 12.687C13.7237 12.7247 13.7893 12.7462 13.8571 12.7494C13.9249 12.7526 13.9923 12.7372 14.052 12.705C14.1118 12.6731 14.1619 12.6256 14.1968 12.5675C14.2317 12.5093 14.2501 12.4428 14.25 12.375V10.875C14.2499 10.5808 14.1792 10.2909 14.0438 10.0297C14.1038 9.9435 14.1495 9.849 14.1847 9.75H21.75V18.375ZM12 7.80675H10.875V7.3275L13.0065 6.61725C13.0628 6.59798 13.1229 6.59245 13.1817 6.60115C13.2406 6.60985 13.2965 6.6325 13.3448 6.66723C13.3931 6.70196 13.4324 6.74775 13.4594 6.80077C13.4864 6.85379 13.5003 6.9125 13.5 6.972V9.3915C13.4988 9.47974 13.4669 9.56482 13.4099 9.63214C13.3528 9.69946 13.2741 9.74484 13.1873 9.7605L13.185 9.76125C13.1252 9.77107 13.064 9.76618 13.0065 9.747L10.875 9.036V8.55675H12C12.0995 8.55675 12.1948 8.51724 12.2652 8.44691C12.3355 8.37659 12.375 8.28121 12.375 8.18175C12.375 8.08229 12.3355 7.98691 12.2652 7.91658C12.1948 7.84626 12.0995 7.80675 12 7.80675ZM11.889 10.1648L12.7695 10.458C12.8805 10.4948 12.9945 10.512 13.1085 10.5135C13.1153 10.5135 13.122 10.5165 13.1287 10.5165C13.1872 10.5165 13.2435 10.4985 13.3005 10.4895C13.3417 10.4827 13.3838 10.485 13.4235 10.4745C13.4745 10.6027 13.5 10.737 13.5 10.875V11.6737L12.9578 11.313C12.8963 11.2719 12.824 11.2499 12.75 11.2499C12.676 11.2499 12.6037 11.2719 12.5422 11.313L12 11.6737V10.8045C12 10.581 11.961 10.3658 11.889 10.1648ZM21.75 9H14.25V7.5H21.75V9ZM21.75 6.75H14.2238C14.1933 6.59347 14.1298 6.44527 14.0374 6.31533C13.9449 6.1854 13.8258 6.07675 13.6879 5.99669C13.55 5.91662 13.3966 5.867 13.2379 5.85114C13.0792 5.83528 12.919 5.85356 12.768 5.90475L10.5503 6.64425C10.536 6.6285 10.5165 6.6165 10.5 6.6015V4.5H20.625C21.2453 4.5 21.75 5.00475 21.75 5.625V6.75ZM15.375 18H19.875C19.9745 18 20.0698 17.9605 20.1402 17.8902C20.2105 17.8198 20.25 17.7245 20.25 17.625C20.25 17.5255 20.2105 17.4302 20.1402 17.3598C20.0698 17.2895 19.9745 17.25 19.875 17.25H15.375C15.2755 17.25 15.1802 17.2895 15.1098 17.3598C15.0395 17.4302 15 17.5255 15 17.625C15 17.7245 15.0395 17.8198 15.1098 17.8902C15.1802 17.9605 15.2755 18 15.375 18ZM16.875 16.5H19.875C19.9745 16.5 20.0698 16.4605 20.1402 16.3902C20.2105 16.3198 20.25 16.2245 20.25 16.125C20.25 16.0255 20.2105 15.9302 20.1402 15.8598C20.0698 15.7895 19.9745 15.75 19.875 15.75H16.875C16.7755 15.75 16.6802 15.7895 16.6098 15.8598C16.5395 15.9302 16.5 16.0255 16.5 16.125C16.5 16.2245 16.5395 16.3198 16.6098 16.3902C16.6802 16.4605 16.7755 16.5 16.875 16.5Z" fill="black"/>
</svg>
